<svg width="20" height="20" viewBox="0 0 20 20" fill="none" xmlns="http://www.w3.org/2000/svg">
<path d="M6.59945 10.7772H9.85856V17.0723C7.99056 15.4629 6.83034 13.2047 6.59945 10.7772ZM3.04567 10.7772H5.75434C5.95278 13.0432 6.89456 15.1778 8.42923 16.8523C6.57167 16.3774 4.95101 15.2043 3.96478 13.5076C3.47056 12.653 3.16412 11.7243 3.04567 10.7772ZM8.43078 2.90806C6.69256 4.80428 5.71034 7.28828 5.71167 9.88584C5.71167 9.90317 5.71256 9.92051 5.7139 9.93895H2.99101C2.98056 8.66717 3.30434 7.39362 3.96634 6.25362C4.95123 4.55717 6.57301 3.38273 8.43167 2.90806H8.43078ZM9.85856 2.68984V9.93895H6.55523C6.55523 9.92051 6.55434 9.90317 6.55434 9.88584C6.55167 7.12206 7.75967 4.49695 9.85723 2.68984H9.85856ZM10.2801 1.79028C10.2675 1.79028 10.2559 1.79139 10.2441 1.79251C7.35212 1.80495 4.68301 3.34362 3.2359 5.83562C1.78367 8.33828 1.78367 11.4241 3.2359 13.9263C4.6839 16.4198 7.35656 17.9592 10.2501 17.9696C10.2606 17.9709 10.2697 17.971 10.2801 17.971C12.659 17.971 14.9208 16.9323 16.465 15.1325C16.6312 14.9581 16.6161 14.6816 16.4326 14.5261C16.2495 14.3698 15.973 14.399 15.8255 14.5894C14.8386 15.7383 13.5268 16.5385 12.0832 16.905C12.729 16.2165 13.2795 15.4427 13.7161 14.6034C13.9539 14.1134 13.2317 13.7427 12.967 14.219C12.4028 15.3045 11.6332 16.271 10.7006 17.0678V10.7772H11.6272C11.8608 10.7772 12.0499 10.5887 12.0499 10.3578C12.0499 10.1263 11.8606 9.93784 11.6272 9.93895H10.7006V2.66339C11.8526 3.64606 12.7521 4.88739 13.3259 6.28495C13.4106 6.50539 13.6601 6.61295 13.8797 6.52384C14.0979 6.43406 14.1999 6.18317 14.1059 5.96739C13.6359 4.82295 12.9648 3.77539 12.1277 2.86984C14.3699 3.45428 16.2435 5.07562 17.0948 7.29984C17.1681 7.52873 17.4199 7.64873 17.6452 7.56339C17.8719 7.47806 17.9786 7.22162 17.881 7.00228C16.6799 3.86562 13.6541 1.79028 10.2801 1.79028Z" fill="black"/>
<path d="M14.0549 7.84166C14.1022 7.84411 14.1395 7.85566 14.1733 7.87433L17.5207 9.827L16.2315 10.0939C15.9507 10.1528 15.8102 10.4677 15.9542 10.7146L16.8782 12.3088C16.9211 12.3839 16.9004 12.4603 16.8262 12.5041L16.2107 12.857C16.1351 12.8999 16.0567 12.8797 16.0135 12.8046L15.0891 11.2143C14.9462 10.9657 14.6018 10.9301 14.4098 11.1437L13.5378 12.1159L13.5135 8.25433C13.5122 8.15144 13.5924 8.02233 13.7484 7.93322C13.752 7.93211 13.7529 7.931 13.7553 7.92855C13.7598 7.92655 13.7644 7.92544 13.768 7.92188C13.8658 7.86388 13.976 7.83744 14.0549 7.84166ZM14.1013 7.00366C13.4124 7.00366 12.686 7.54855 12.6707 8.26011L12.6949 12.1392C12.6975 12.5121 12.8029 12.8528 13.1155 13.0294C13.4267 13.2048 13.8155 13.065 14.0222 12.8368L14.6502 12.1332L15.2844 13.2234C15.5535 13.6892 16.1642 13.8519 16.6313 13.5837L17.2475 13.229C17.7147 12.9612 17.8782 12.3537 17.6087 11.8897L16.9738 10.7972L17.9073 10.6054C18.2102 10.543 18.5249 10.2777 18.5271 9.92077C18.5293 9.565 18.2867 9.30277 17.9629 9.11455L14.5991 7.15144V7.15344C14.4471 7.06566 14.2822 7.00455 14.1013 7.00455V7.00366Z" fill="black"/>
</svg>
