<svg width="45" height="45" viewBox="0 0 45 45" fill="none" xmlns="http://www.w3.org/2000/svg">
<path d="M32.8188 0H12.1811C5.46431 0 0 5.46431 0 12.1811V32.8192C0 39.5356 5.46431 44.9999 12.1811 44.9999H32.8192C39.5356 44.9999 44.9999 39.5356 44.9999 32.8192V12.1811C44.9999 5.46431 39.5356 0 32.8188 0V0ZM42.3618 32.8192C42.3618 38.0809 38.0809 42.3618 32.8188 42.3618H12.1811C6.91897 42.3618 2.63809 38.0809 2.63809 32.8192V12.1811C2.63809 6.91897 6.91897 2.63809 12.1811 2.63809H32.8192C38.0809 2.63809 42.3618 6.91897 42.3618 12.1811V32.8192Z" fill="white"/>
<path d="M22.5 10.1956C15.7153 10.1956 10.1957 15.7152 10.1957 22.5C10.1957 29.2847 15.7153 34.8043 22.5 34.8043C29.2847 34.8043 34.8043 29.2847 34.8043 22.5C34.8043 15.7152 29.2847 10.1956 22.5 10.1956ZM22.5 32.1662C17.1703 32.1662 12.8338 27.83 12.8338 22.5C12.8338 17.1702 17.1703 12.8337 22.5 12.8337C27.8301 12.8337 32.1662 17.1702 32.1662 22.5C32.1662 27.83 27.8301 32.1662 22.5 32.1662Z" fill="white"/>
<path d="M35.0985 5.82584C33.0935 5.82584 31.4628 7.45696 31.4628 9.46162C31.4628 11.4666 33.0935 13.0977 35.0985 13.0977C37.1035 13.0977 38.7347 11.4666 38.7347 9.46162C38.7347 7.45662 37.1035 5.82584 35.0985 5.82584ZM35.0985 10.4593C34.5485 10.4593 34.1009 10.0116 34.1009 9.46162C34.1009 8.91127 34.5485 8.46392 35.0985 8.46392C35.6489 8.46392 36.0966 8.91127 36.0966 9.46162C36.0966 10.0116 35.6489 10.4593 35.0985 10.4593Z" fill="white"/>
</svg>
