<svg width="45" height="45" viewBox="0 0 45 45" fill="none" xmlns="http://www.w3.org/2000/svg">
<path d="M42.7025 11.9554C42.2163 10.1481 40.7914 8.72341 38.9843 8.23675C35.683 7.33347 22.4775 7.33347 22.4775 7.33347C22.4775 7.33347 9.27255 7.33347 5.97124 8.2025C4.19892 8.68865 2.7392 10.1484 2.25306 11.9554C1.38428 15.2565 1.38428 22.1024 1.38428 22.1024C1.38428 22.1024 1.38428 28.9829 2.25306 32.2494C2.73972 34.0565 4.16416 35.4812 5.9715 35.9679C9.30731 36.8714 22.478 36.8714 22.478 36.8714C22.478 36.8714 35.683 36.8714 38.9843 36.0024C40.7916 35.516 42.2163 34.0912 42.703 32.2842C43.5715 28.9829 43.5715 22.1372 43.5715 22.1372C43.5715 22.1372 43.6063 15.2565 42.7025 11.9554ZM18.2732 28.4269V15.7779L29.2542 22.1024L18.2732 28.4269Z" fill="white"/>
</svg>
