<svg width="75" height="80" viewBox="0 0 75 80" fill="none" xmlns="http://www.w3.org/2000/svg">
<path d="M30.7856 36.2555C28.4165 35.5762 26.0474 35.2315 23.7429 35.2315C20.1843 35.2315 17.2149 36.0415 14.9124 37.0332C17.1321 28.9403 22.4646 14.9761 33.0871 13.4035C34.0708 13.2578 34.877 12.5494 35.1454 11.5958L37.467 3.32601C37.6628 2.62664 37.5467 1.87804 37.1462 1.27112C36.7456 0.664197 36.1019 0.259247 35.3805 0.160774C34.5965 0.054261 33.7974 0 33.0053 0C20.2549 0 7.62757 13.2538 2.29917 32.2311C-0.828653 43.3647 -1.74581 60.1032 5.95873 70.6389C10.2701 76.5343 16.56 79.6825 24.654 79.997C24.6873 79.998 24.7196 79.999 24.7529 79.999C34.7398 79.999 43.5955 73.3008 46.2895 63.7116C47.8988 57.979 47.1714 51.9671 44.2393 46.7791C41.3385 41.6494 36.561 37.9104 30.7856 36.2555Z" fill="#B95D45"/>
<path d="M72.1129 46.7801C69.2121 41.6494 64.4346 37.9104 58.6592 36.2555C56.2901 35.5762 53.921 35.2316 51.6175 35.2316C48.0589 35.2316 45.0885 36.0415 42.786 37.0332C45.0057 28.9403 50.3382 14.9761 60.9617 13.4035C61.9454 13.2578 62.7506 12.5494 63.02 11.5958L65.3416 3.32601C65.5374 2.62664 65.4214 1.87804 65.0208 1.27112C64.6212 0.664197 63.9775 0.259247 63.2551 0.160774C62.4721 0.054261 61.673 0 60.8799 0C48.1295 0 35.5022 13.2538 30.1728 32.2311C27.046 43.3647 26.1288 60.1032 33.8344 70.641C38.1447 76.5353 44.4357 79.6845 52.5287 79.998C52.562 79.999 52.5942 80 52.6285 80C62.6144 80 71.4712 73.3018 74.1651 63.7126C75.7724 57.98 75.044 51.9671 72.1129 46.7801Z" fill="#E07A5F"/>
</svg>
