<svg width="46" height="46" viewBox="0 0 46 46" fill="none" xmlns="http://www.w3.org/2000/svg">
<path d="M2.78516 44.6523C2.78516 45.3967 3.38844 46 4.13281 46H12.2188C13.5145 46 14.6691 45.3865 15.4096 44.4355C18.6945 45.4732 22.1044 46 25.5535 46H36.4766C38.7058 46 40.5195 44.1863 40.5195 41.957C40.5195 41.431 40.4174 40.9284 40.2339 40.4669C41.9493 39.9994 43.2148 38.4282 43.2148 36.5664C43.2148 35.5318 42.8235 34.587 42.182 33.8711C42.8239 33.1552 43.2148 32.2104 43.2148 31.1758C43.2148 30.1412 42.8235 29.1964 42.182 28.4805C42.8239 27.7645 43.2148 26.8198 43.2148 25.7852C43.2148 23.5559 41.4011 21.7422 39.1719 21.7422H31.7952C31.8998 21.4944 32.0079 21.2431 32.1181 20.9876C32.9358 19.0914 33.7812 17.1307 33.7812 15.0039C33.7812 11.2789 30.7683 8.17578 27.043 8.17578C26.4007 8.17578 25.8476 8.62921 25.7216 9.25917L25.0334 12.7003C24.1294 17.2198 23.1309 17.7315 19.4161 19.6351C18.4341 20.138 17.2805 20.7293 15.9343 21.4969C15.3145 20.0576 13.8826 19.0469 12.2188 19.0469H4.13281C3.38844 19.0469 2.78516 19.6502 2.78516 20.3945V44.6523ZM20.6448 22.0338C22.6564 21.0031 24.1094 20.2587 25.2471 18.9984C26.4106 17.7094 27.1146 16.0378 27.6764 13.2288L28.1169 11.0255C29.8071 11.5204 31.0859 13.1421 31.0859 15.0039C31.0859 16.5741 30.3524 18.2751 29.6428 19.9204C29.3856 20.5174 29.1231 21.1277 28.8893 21.7422H27.043C26.2986 21.7422 25.6953 22.3455 25.6953 23.0898C25.6953 23.8342 26.2986 24.4375 27.043 24.4375H39.1719C39.9148 24.4375 40.5195 25.0422 40.5195 25.7852C40.5195 26.5281 39.9148 27.1328 39.1719 27.1328H36.4766C35.7322 27.1328 35.1289 27.7361 35.1289 28.4805C35.1289 29.2248 35.7322 29.8281 36.4766 29.8281H39.1719C39.9148 29.8281 40.5195 30.4328 40.5195 31.1758C40.5195 31.9187 39.9148 32.5234 39.1719 32.5234H36.4766C35.7322 32.5234 35.1289 33.1267 35.1289 33.8711C35.1289 34.6155 35.7322 35.2188 36.4766 35.2188H39.1719C39.9148 35.2188 40.5195 35.8234 40.5195 36.5664C40.5195 37.3094 39.9148 37.9141 39.1719 37.9141H36.4766C35.7322 37.9141 35.1289 38.5173 35.1289 39.2617C35.1289 40.0061 35.7322 40.6094 36.4766 40.6094C37.2195 40.6094 37.8242 41.2141 37.8242 41.957C37.8242 42.7 37.2195 43.3047 36.4766 43.3047H25.5535C22.3946 43.3047 19.2715 42.8246 16.2617 41.8784V24.4259C17.9993 23.3899 19.4526 22.6448 20.6448 22.0338V22.0338ZM5.48047 21.7422H12.2188C12.9617 21.7422 13.5664 22.3469 13.5664 23.0898V41.957C13.5664 42.7 12.9617 43.3047 12.2188 43.3047H5.48047V21.7422Z" fill="black"/>
<path d="M10.8711 39.2617C10.8711 40.0061 10.2678 40.6094 9.52344 40.6094C8.77907 40.6094 8.17578 40.0061 8.17578 39.2617C8.17578 38.5173 8.77907 37.9141 9.52344 37.9141C10.2678 37.9141 10.8711 38.5173 10.8711 39.2617Z" fill="black"/>
<path d="M27.043 1.34766V4.13281C27.043 4.87718 27.6463 5.48047 28.3906 5.48047C29.135 5.48047 29.7383 4.87718 29.7383 4.13281V1.34766C29.7383 0.603287 29.135 0 28.3906 0C27.6463 0 27.043 0.603287 27.043 1.34766Z" fill="black"/>
<path d="M35.5235 3.57449L33.6175 5.48051C33.091 6.00694 33.091 6.8601 33.6175 7.38653C34.1439 7.91261 34.9971 7.91261 35.5235 7.38653L37.4292 5.48051C37.9556 4.95408 37.9556 4.10092 37.4292 3.57449C36.9027 3.04841 36.0496 3.04841 35.5235 3.57449Z" fill="black"/>
<path d="M19.3519 3.57449C18.8254 4.10092 18.8254 4.95408 19.3519 5.48051L21.2575 7.38653C21.784 7.91261 22.6371 7.91261 23.1635 7.38653C23.6896 6.8601 23.6896 6.00694 23.1635 5.48051L21.2575 3.57449C20.7314 3.04841 19.8779 3.04841 19.3519 3.57449Z" fill="black"/>
</svg>
