<svg width="50" height="50" viewBox="0 0 50 50" fill="none" xmlns="http://www.w3.org/2000/svg">
<path d="M49.8148 24.4083C49.4211 23.8353 39.9584 10.4164 24.9999 10.4164C12.1642 10.4164 0.726549 23.7583 0.245292 24.327C-0.081764 24.7146 -0.081764 25.2833 0.245292 25.6729C0.726549 26.2416 12.1642 39.5835 24.9999 39.5835C37.8355 39.5835 49.2731 26.2416 49.7544 25.6729C50.0565 25.3146 50.0836 24.7958 49.8148 24.4083ZM24.9999 37.5002C14.7102 37.5002 4.92662 27.6875 2.44122 25C4.92251 22.3104 14.6956 12.4998 24.9999 12.4998C37.0396 12.4998 45.5377 22.2979 47.6127 24.9438C45.2168 27.5458 35.3771 37.5002 24.9999 37.5002Z" fill="#6B6B6B"/>
<path d="M24.9997 16.6665C20.4038 16.6665 16.6663 20.4041 16.6663 24.9999C16.6663 29.5958 20.4038 33.3334 24.9997 33.3334C29.5956 33.3334 33.3331 29.5958 33.3331 24.9999C33.3331 20.4041 29.5956 16.6665 24.9997 16.6665ZM24.9997 31.2501C21.5538 31.2501 18.7496 28.4459 18.7496 25C18.7496 21.5542 21.5538 18.7499 24.9997 18.7499C28.4456 18.7499 31.2498 21.5542 31.2498 25C31.2498 28.4459 28.4456 31.2501 24.9997 31.2501Z" fill="#6B6B6B"/>
</svg>
