<svg width="58" height="58" viewBox="0 0 58 58" fill="none" xmlns="http://www.w3.org/2000/svg">
<path d="M44.2949 28.485H48.3406C49.2553 28.485 49.9994 27.7409 49.9994 26.8262V22.7805C49.9994 21.8659 49.2553 21.1217 48.3406 21.1217H44.2949C43.3803 21.1217 42.6361 21.8659 42.6361 22.7805V26.8262C42.6361 27.7409 43.3803 28.485 44.2949 28.485ZM44.3354 22.821H48.3002V26.7858H44.3354V22.821ZM44.2949 39.2467H48.3406C49.2553 39.2467 49.9994 38.5026 49.9994 37.588V33.5422C49.9994 32.6276 49.2553 31.8835 48.3406 31.8835H44.2949C43.3803 31.8835 42.6361 32.6276 42.6361 33.5422V37.588C42.6361 38.5026 43.3803 39.2467 44.2949 39.2467ZM44.3354 33.5827H48.3002V37.5475H44.3354V33.5827ZM32.7497 28.485H36.7955C37.7101 28.485 38.4542 27.7409 38.4542 26.8262V22.7805C38.4542 21.8659 37.7101 21.1217 36.7955 21.1217H32.7497C31.8351 21.1217 31.091 21.8659 31.091 22.7805V26.8262C31.091 27.7409 31.8351 28.485 32.7497 28.485ZM32.7902 22.821H36.755V26.7858H32.7902V22.821ZM13.7051 42.1406H9.6594C8.74476 42.1406 8.00062 42.8848 8.00062 43.7994V47.8451C8.00062 48.7598 8.74476 49.5039 9.6594 49.5039H13.7051C14.6198 49.5039 15.3639 48.7598 15.3639 47.8451V43.7994C15.3639 42.8848 14.6198 42.1406 13.7051 42.1406ZM13.6647 47.8047H9.69984V43.8398H13.6647V47.8047ZM13.7051 21.1217H9.6594C8.74476 21.1217 8.00062 21.8659 8.00062 22.7805V26.8262C8.00062 27.7409 8.74476 28.485 9.6594 28.485H13.7051C14.6198 28.485 15.3639 27.7409 15.3639 26.8262V22.7805C15.3639 21.8658 14.6198 21.1217 13.7051 21.1217ZM13.6647 26.7858H9.69984V22.821H13.6647V26.7858ZM32.7497 38.9945H36.7955C37.7101 38.9945 38.4542 38.2503 38.4542 37.3357V33.29C38.4542 32.3753 37.7101 31.6312 36.7955 31.6312H32.7497C31.8351 31.6312 31.091 32.3753 31.091 33.29V37.3357C31.091 38.2503 31.8351 38.9945 32.7497 38.9945ZM32.7902 33.3304H36.755V37.2952H32.7902V33.3304ZM50.8432 3.8826H47.2108V2.58361C47.2108 1.15898 46.0518 0 44.6272 0H44.237C42.8125 0 41.6535 1.15898 41.6535 2.58361V3.8826H16.3465V2.58361C16.3465 1.15898 15.1875 0 13.7629 0H13.3728C11.9481 0 10.7891 1.15898 10.7891 2.58361V3.8826H7.15679C4.8113 3.8826 2.90308 5.79082 2.90308 8.13631V53.752C2.90308 56.0944 4.80869 58 7.15112 58H50.8491C53.1916 58 55.0972 56.0944 55.0972 53.752V8.13631C55.0971 5.79082 53.1888 3.8826 50.8432 3.8826ZM43.3527 2.58361C43.3527 2.09593 43.7495 1.69922 44.2371 1.69922H44.6273C45.1149 1.69922 45.5117 2.09593 45.5117 2.58361V3.8826H43.3527V2.58361ZM12.4885 2.58361C12.4885 2.09593 12.8852 1.69922 13.3729 1.69922H13.763C14.2507 1.69922 14.6474 2.09593 14.6474 2.58361V3.8826H12.4886V2.58361H12.4885ZM53.3978 53.752C53.3978 55.1574 52.2545 56.3008 50.849 56.3008H7.15101C5.74553 56.3008 4.60218 55.1574 4.60218 53.752V53.7466C5.31404 54.283 6.19888 54.6016 7.15679 54.6016H41.6037C42.7399 54.6016 43.8081 54.1591 44.6115 53.3556L53.3978 44.5693V53.752ZM43.7446 51.8195C43.8112 51.5446 43.8474 51.2578 43.8474 50.9627V45.2914C43.8474 44.2221 44.7176 43.3519 45.787 43.3519H51.4582C51.7533 43.3519 52.0401 43.3157 52.315 43.2491L43.7446 51.8195ZM53.3978 16.0241H17.1961C16.7269 16.0241 16.3465 16.4045 16.3465 16.8737C16.3465 17.3429 16.7269 17.7233 17.1961 17.7233H53.3978V39.7132C53.3978 40.7827 52.5277 41.6528 51.4582 41.6528H45.787C43.7806 41.6528 42.1482 43.2852 42.1482 45.2915V50.9629C42.1482 52.0323 41.2781 52.9025 40.2087 52.9025H7.15679C5.74825 52.9025 4.60229 51.7565 4.60229 50.3479V17.7233H13.7977C14.2669 17.7233 14.6473 17.3429 14.6473 16.8737C14.6473 16.4045 14.2669 16.0241 13.7977 16.0241H4.60218V8.13631C4.60218 6.72777 5.74813 5.58182 7.15667 5.58182H10.7891V8.0799C10.7891 9.50452 11.9481 10.6635 13.3728 10.6635C13.842 10.6635 14.2224 10.2831 14.2224 9.8139C14.2224 9.34468 13.842 8.96429 13.3728 8.96429C12.8851 8.96429 12.4884 8.56757 12.4884 8.0799V5.58182H41.6535V8.0799C41.6535 9.50452 42.8125 10.6635 44.2371 10.6635C44.7063 10.6635 45.0867 10.2831 45.0867 9.8139C45.0867 9.34468 44.7063 8.96429 44.2371 8.96429C43.7495 8.96429 43.3527 8.56757 43.3527 8.0799V5.58182H50.8434C52.2519 5.58182 53.3978 6.72777 53.3978 8.13631V16.0241ZM13.7051 31.6312H9.6594C8.74476 31.6312 8.00062 32.3753 8.00062 33.29V37.3357C8.00062 38.2503 8.74476 38.9945 9.6594 38.9945H13.7051C14.6198 38.9945 15.3639 38.2503 15.3639 37.3357V33.29C15.3639 32.3752 14.6198 31.6312 13.7051 31.6312ZM13.6647 37.2952H9.69984V33.3304H13.6647V37.2952ZM21.2046 28.485H25.2503C26.1649 28.485 26.9091 27.7409 26.9091 26.8262V22.7805C26.9091 21.8659 26.1649 21.1217 25.2503 21.1217H21.2046C20.2899 21.1217 19.5458 21.8659 19.5458 22.7805V26.8262C19.5458 27.7409 20.2899 28.485 21.2046 28.485ZM21.245 22.821H25.2099V26.7858H21.245V22.821ZM32.7892 47.8047C32.7681 47.3542 32.3962 46.9955 31.9405 46.9955C31.4712 46.9955 31.0908 47.3759 31.0908 47.8451C31.0908 48.7598 31.835 49.5039 32.7496 49.5039H36.7953C37.71 49.5039 38.4541 48.7598 38.4541 47.8451V43.7994C38.4541 42.8848 37.71 42.1406 36.7953 42.1406H32.7496C31.835 42.1406 31.0908 42.8848 31.0908 43.7994V44.9662C31.0908 45.4354 31.4712 45.8158 31.9405 45.8158C32.4097 45.8158 32.7901 45.4354 32.7901 44.9662V43.8398H36.7549V47.8047H32.7892ZM21.2046 38.9945H25.2503C26.1649 38.9945 26.9091 38.2503 26.9091 37.3357V33.29C26.9091 32.3753 26.1649 31.6312 25.2503 31.6312H21.2046C20.2899 31.6312 19.5458 32.3753 19.5458 33.29V37.3357C19.5458 38.2503 20.2899 38.9945 21.2046 38.9945ZM21.245 33.3304H25.2099V37.2952H21.245V33.3304ZM21.2046 49.5039H25.2503C26.1649 49.5039 26.9091 48.7598 26.9091 47.8451V43.7994C26.9091 42.8848 26.1649 42.1406 25.2503 42.1406H21.2046C20.2899 42.1406 19.5458 42.8848 19.5458 43.7994V47.8451C19.5458 48.7598 20.2899 49.5039 21.2046 49.5039ZM21.245 43.8398H25.2099V47.8047H21.245V43.8398Z" fill="#6B6B6B"/>
</svg>
